<svg xmlns="http://www.w3.org/2000/svg" width="75" height="75" viewBox="0 0 75 75">
  <g id="Group_12185" data-name="Group 12185" transform="translate(-0.033 -0.254)">
    <g id="Group_9731" data-name="Group 9731" transform="translate(1.305 1.305)">
      <rect id="Rectangle_1537" data-name="Rectangle 1537" width="75" height="75" rx="20" transform="translate(-1.271 -1.051)" fill="none"/>
      <g id="Group_12188" data-name="Group 12188" transform="translate(17.119 17.342)">
        <g id="Group_12187" data-name="Group 12187" transform="translate(0 -0.002)">
          <g id="Group_12189" data-name="Group 12189" transform="translate(0 0)">
            <path id="Path_41110" data-name="Path 41110" d="M157.748,143.322l5.18,8.927,1.822,3.14a21.442,21.442,0,0,0,3.628,4.636,73.894,73.894,0,0,1,7.173,7.858,23.45,23.45,0,0,1,3.494,5.834,2.7,2.7,0,0,1-3.441,3.441,23.126,23.126,0,0,1-5.685-3.38h0c-1.228-.935-2.6-2.085-4.135-3.5-1.137-1.047-2.363-2.239-3.682-3.593A23.777,23.777,0,0,0,157,162.7l-.665-.391-2.013-1.184-9.051-5.322Z" transform="translate(-140.994 -139.108)" fill="#377dff"/>
            <path id="Path_41111" data-name="Path 41111" d="M40.66,27.341l2.779,2.779a8.406,8.406,0,0,1,2.451,6.117,8.97,8.97,0,0,1-2.651,6.2,8.713,8.713,0,0,1-12.317.2l-2.779-2.779Z" transform="translate(-27.316 -26.537)" fill="#444443"/>
            <path id="Path_41112" data-name="Path 41112" d="M40.66,27.341l2.677,2.677q-.045.193-.107.388a6.267,6.267,0,0,1-.22.592,5.063,5.063,0,0,0-.267,3.191,4.468,4.468,0,0,1-.133,2.394,8.682,8.682,0,0,1-5.249,5.249,4.468,4.468,0,0,1-2.394.133,5.063,5.063,0,0,0-3.191.267,6.266,6.266,0,0,1-.592.22q-.176.055-.35.1l-2.691-2.691.368-.368A4.514,4.514,0,0,1,30.1,36.119a4.514,4.514,0,0,1,3.371-1.59l1.835-1.835a4.514,4.514,0,0,1,1.59-3.371,4.515,4.515,0,0,1,3.371-1.591Z" transform="translate(-27.316 -26.537)" fill="#5d96ff"/>
            <path id="Path_41113" data-name="Path 41113" d="M255.74,250.423c.767.767.2,2.579-1.268,4.047s-3.279,2.036-4.047,1.268-.2-2.579,1.268-4.047,3.279-2.036,4.047-1.268" transform="translate(-242.731 -242.729)" fill="#e84c3d"/>
            <path id="Path_41114" data-name="Path 41114" d="M45.647,271.514c.767.767.2,2.579-1.268,4.047s-3.28,2.035-4.047,1.268a1.181,1.181,0,0,1-.322-.676,4.515,4.515,0,0,1,1.591-3.371,4.514,4.514,0,0,1,3.371-1.59,1.182,1.182,0,0,1,.676.322" transform="translate(-38.815 -263.2)" fill="#e84c3d"/>
            <path id="Path_41115" data-name="Path 41115" d="M276.831,40.33c.767.767.2,2.579-1.268,4.047s-3.279,2.035-4.047,1.268a1.181,1.181,0,0,1-.322-.676,4.514,4.514,0,0,1,1.59-3.371,4.515,4.515,0,0,1,3.371-1.591,1.181,1.181,0,0,1,.676.322" transform="translate(-263.202 -38.813)" fill="#e84c3d"/>
            <path id="Path_41116" data-name="Path 41116" d="M10.1.2A6.712,6.712,0,0,0,7.46,1.869,6.712,6.712,0,0,0,5.786,4.512a4.162,4.162,0,0,0-.194,1.079,4.162,4.162,0,0,0-1.079.194A6.712,6.712,0,0,0,1.871,7.458,6.711,6.711,0,0,0,.2,10.1a3.1,3.1,0,0,0,.59,3.224,3.1,3.1,0,0,0,3.224.59,6.248,6.248,0,0,0,1.92-1.037A3.125,3.125,0,0,0,9.09,13.4a6.711,6.711,0,0,0,2.643-1.674,6.712,6.712,0,0,0,1.674-2.643,3.125,3.125,0,0,0-.527-3.159,6.248,6.248,0,0,0,1.037-1.92,3.1,3.1,0,0,0-.59-3.224A3.1,3.1,0,0,0,10.1.2" transform="translate(0 0.002)" fill="#444443"/>
            <path id="Path_41117" data-name="Path 41117" d="M238.5,234.126c.631.631.164,2.121-1.043,3.328s-2.7,1.674-3.328,1.043-.164-2.121,1.043-3.328,2.7-1.674,3.328-1.043" transform="translate(-226.972 -226.97)" fill="#ddd"/>
            <path id="Path_41118" data-name="Path 41118" d="M65.725,251.468c.631.631.164,2.121-1.043,3.328s-2.7,1.674-3.328,1.043-.164-2.121,1.043-3.328,2.7-1.674,3.328-1.043" transform="translate(-59.278 -243.802)" fill="#ddd"/>
            <path id="Path_41119" data-name="Path 41119" d="M100.977,288.664c.35.35.091,1.177-.579,1.847s-1.5.929-1.847.579-.091-1.177.579-1.847,1.5-.929,1.847-.579" transform="translate(-95.502 -280.026)" fill="#fff"/>
            <path id="Path_41120" data-name="Path 41120" d="M255.841,61.352c.631.631.164,2.121-1.043,3.328s-2.7,1.674-3.328,1.043-.164-2.121,1.043-3.328,2.7-1.674,3.328-1.043" transform="translate(-243.804 -59.276)" fill="#ddd"/>
            <path id="Path_41121" data-name="Path 41121" d="M291.093,98.548c.35.35.091,1.177-.579,1.847s-1.5.929-1.847.579-.091-1.177.579-1.847,1.5-.929,1.847-.579" transform="translate(-280.028 -95.5)" fill="#fff"/>
            <path id="Path_41122" data-name="Path 41122" d="M122.878,311.773c.176.176.046.591-.291.928s-.752.467-.928.291-.046-.591.291-.928.752-.467.928-.291" transform="translate(-118.007 -302.531)" fill="#ddd"/>
            <path id="Path_41123" data-name="Path 41123" d="M312.993,121.657c.176.176.046.591-.291.928s-.752.467-.928.291-.046-.591.291-.928.752-.467.928-.291" transform="translate(-302.533 -118.004)" fill="#ddd"/>
            <path id="Path_41124" data-name="Path 41124" d="M273.751,271.322c.35.35.091,1.177-.579,1.847s-1.5.929-1.847.579-.091-1.177.579-1.847,1.5-.929,1.847-.579" transform="translate(-263.196 -263.194)" fill="#fff"/>
            <path id="Path_41125" data-name="Path 41125" d="M295.652,294.432c.176.176.046.591-.291.928s-.752.467-.928.291-.046-.591.291-.928.752-.467.928-.291" transform="translate(-285.702 -285.7)" fill="#ddd"/>
            <path id="Path_41126" data-name="Path 41126" d="M461.146,751.651l1.8,3.349c-1.228-.935-2.6-2.085-4.135-3.5-1.137-1.047-2.363-2.239-3.682-3.593a23.781,23.781,0,0,0-5.106-3.985l-.665-.391-2.013-1.184-.176-.2,4.064,1.287a17.072,17.072,0,0,1,9.918,8.215" transform="translate(-434.019 -720.33)" fill="#444443"/>
            <path id="Path_41127" data-name="Path 41127" d="M745.972,448.413a21.444,21.444,0,0,0,3.628,4.636,73.892,73.892,0,0,1,7.173,7.858l-3.178-1.7a17.072,17.072,0,0,1-8.215-9.918l-1.287-4.064.058.051Z" transform="translate(-722.216 -432.132)" fill="#444443"/>
            <path id="Path_41128" data-name="Path 41128" d="M576.56,571.444a2.244,2.244,0,1,1-3.122.051,2.208,2.208,0,0,1,3.122-.051" transform="translate(-555.927 -554.041)" fill="#444443"/>
          </g>
        </g>
      </g>
    </g>
  </g>
</svg>
